# Blender v2.80 (sub 75) OBJ File: ''
# www.blender.org
v 1.000000 1.000000 -1.000000
v 1.000000 -1.000000 -1.000000
v 1.000000 1.000000 1.000000
v 1.000000 -1.000000 1.000000
v -1.000000 1.000000 -1.000000
v -1.000000 -1.000000 -1.000000
v -1.000000 1.000000 1.000000
v -1.000000 -1.000000 1.000000
vt 0.445523 0.559275
vt 0.024310 0.980488
vt 0.024310 0.559275
vt 0.890084 0.629798
vt 0.640084 0.879798
vt 0.640084 0.629798
vt 0.381619 0.647269
vt 0.131619 0.897269
vt 0.131619 0.647269
vt 0.375418 0.112869
vt 0.125418 0.362869
vt 0.125418 0.112869
vt 0.895866 0.622465
vt 0.645866 0.872465
vt 0.645866 0.622465
vt 0.875000 0.078347
vt 0.625000 0.328347
vt 0.625000 0.078347
vt 0.445523 0.980488
vt 0.890084 0.879798
vt 0.381619 0.897269
vt 0.375418 0.362869
vt 0.895866 0.872465
vt 0.875000 0.328347
vn 0.0000 1.0000 0.0000
vn 0.0000 0.0000 1.0000
vn -1.0000 0.0000 0.0000
vn 0.0000 -1.0000 0.0000
vn 1.0000 0.0000 0.0000
vn 0.0000 0.0000 -1.0000
s off
f 5/1/1 3/2/1 1/3/1
f 3/4/2 8/5/2 4/6/2
f 7/7/3 6/8/3 8/9/3
f 2/10/4 8/11/4 6/12/4
f 1/13/5 4/14/5 2/15/5
f 5/16/6 2/17/6 6/18/6
f 5/1/1 7/19/1 3/2/1
f 3/4/2 7/20/2 8/5/2
f 7/7/3 5/21/3 6/8/3
f 2/10/4 4/22/4 8/11/4
f 1/13/5 3/23/5 4/14/5
f 5/16/6 1/24/6 2/17/6
